<?xml version='1.0' encoding='utf-8'?>
<svg xmlns:xlink="http://www.w3.org/1999/xlink" xmlns="http://www.w3.org/2000/svg" id="chart-d600bf58-09d6-49d1-b149-d1eb410a09d3" class="pygal-chart" viewBox="0 0 800 600"><!--Generated with pygal 2.3.1 (lxml) ©Kozea 2012-2016 on 2017-02-07--><!--http://pygal.org--><!--http://github.com/Kozea/pygal--><defs><style type="text/css">#chart-d600bf58-09d6-49d1-b149-d1eb410a09d3{-webkit-user-select:none;-webkit-font-smoothing:antialiased;font-family:Consolas,"Liberation Mono",Menlo,Courier,monospace}#chart-d600bf58-09d6-49d1-b149-d1eb410a09d3 .title{font-family:Consolas,"Liberation Mono",Menlo,Courier,monospace;font-size:16px}#chart-d600bf58-09d6-49d1-b149-d1eb410a09d3 .legends .legend text{font-family:Consolas,"Liberation Mono",Menlo,Courier,monospace;font-size:14px}#chart-d600bf58-09d6-49d1-b149-d1eb410a09d3 .axis text{font-family:Consolas,"Liberation Mono",Menlo,Courier,monospace;font-size:10px}#chart-d600bf58-09d6-49d1-b149-d1eb410a09d3 .axis text.major{font-family:Consolas,"Liberation Mono",Menlo,Courier,monospace;font-size:10px}#chart-d600bf58-09d6-49d1-b149-d1eb410a09d3 .text-overlay text.value{font-family:Consolas,"Liberation Mono",Menlo,Courier,monospace;font-size:16px}#chart-d600bf58-09d6-49d1-b149-d1eb410a09d3 .text-overlay text.label{font-family:Consolas,"Liberation Mono",Menlo,Courier,monospace;font-size:10px}#chart-d600bf58-09d6-49d1-b149-d1eb410a09d3 .tooltip{font-family:Consolas,"Liberation Mono",Menlo,Courier,monospace;font-size:14px}#chart-d600bf58-09d6-49d1-b149-d1eb410a09d3 text.no_data{font-family:Consolas,"Liberation Mono",Menlo,Courier,monospace;font-size:64px}
#chart-d600bf58-09d6-49d1-b149-d1eb410a09d3{background-color:black}#chart-d600bf58-09d6-49d1-b149-d1eb410a09d3 path,#chart-d600bf58-09d6-49d1-b149-d1eb410a09d3 line,#chart-d600bf58-09d6-49d1-b149-d1eb410a09d3 rect,#chart-d600bf58-09d6-49d1-b149-d1eb410a09d3 circle{-webkit-transition:250ms;-moz-transition:250ms;transition:250ms}#chart-d600bf58-09d6-49d1-b149-d1eb410a09d3 .graph &gt; .background{fill:black}#chart-d600bf58-09d6-49d1-b149-d1eb410a09d3 .plot &gt; .background{fill:#111}#chart-d600bf58-09d6-49d1-b149-d1eb410a09d3 .graph{fill:#999}#chart-d600bf58-09d6-49d1-b149-d1eb410a09d3 text.no_data{fill:#eee}#chart-d600bf58-09d6-49d1-b149-d1eb410a09d3 .title{fill:#eee}#chart-d600bf58-09d6-49d1-b149-d1eb410a09d3 .legends .legend text{fill:#999}#chart-d600bf58-09d6-49d1-b149-d1eb410a09d3 .legends .legend:hover text{fill:#eee}#chart-d600bf58-09d6-49d1-b149-d1eb410a09d3 .axis .line{stroke:#eee}#chart-d600bf58-09d6-49d1-b149-d1eb410a09d3 .axis .guide.line{stroke:#555}#chart-d600bf58-09d6-49d1-b149-d1eb410a09d3 .axis .major.line{stroke:#999}#chart-d600bf58-09d6-49d1-b149-d1eb410a09d3 .axis text.major{fill:#eee}#chart-d600bf58-09d6-49d1-b149-d1eb410a09d3 .axis.y .guides:hover .guide.line,#chart-d600bf58-09d6-49d1-b149-d1eb410a09d3 .line-graph .axis.x .guides:hover .guide.line,#chart-d600bf58-09d6-49d1-b149-d1eb410a09d3 .stackedline-graph .axis.x .guides:hover .guide.line,#chart-d600bf58-09d6-49d1-b149-d1eb410a09d3 .xy-graph .axis.x .guides:hover .guide.line{stroke:#eee}#chart-d600bf58-09d6-49d1-b149-d1eb410a09d3 .axis .guides:hover text{fill:#eee}#chart-d600bf58-09d6-49d1-b149-d1eb410a09d3 .reactive{fill-opacity:.8;stroke-opacity:.8}#chart-d600bf58-09d6-49d1-b149-d1eb410a09d3 .ci{stroke:#999}#chart-d600bf58-09d6-49d1-b149-d1eb410a09d3 .reactive.active,#chart-d600bf58-09d6-49d1-b149-d1eb410a09d3 .active .reactive{fill-opacity:.4;stroke-opacity:.9;stroke-width:4}#chart-d600bf58-09d6-49d1-b149-d1eb410a09d3 .ci .reactive.active{stroke-width:1.5}#chart-d600bf58-09d6-49d1-b149-d1eb410a09d3 .series text{fill:#eee}#chart-d600bf58-09d6-49d1-b149-d1eb410a09d3 .tooltip rect{fill:#111;stroke:#eee;-webkit-transition:opacity 250ms;-moz-transition:opacity 250ms;transition:opacity 250ms}#chart-d600bf58-09d6-49d1-b149-d1eb410a09d3 .tooltip .label{fill:#999}#chart-d600bf58-09d6-49d1-b149-d1eb410a09d3 .tooltip .label{fill:#999}#chart-d600bf58-09d6-49d1-b149-d1eb410a09d3 .tooltip .legend{font-size:.8em;fill:#555}#chart-d600bf58-09d6-49d1-b149-d1eb410a09d3 .tooltip .x_label{font-size:.6em;fill:#eee}#chart-d600bf58-09d6-49d1-b149-d1eb410a09d3 .tooltip .xlink{font-size:.5em;text-decoration:underline}#chart-d600bf58-09d6-49d1-b149-d1eb410a09d3 .tooltip .value{font-size:1.5em}#chart-d600bf58-09d6-49d1-b149-d1eb410a09d3 .bound{font-size:.5em}#chart-d600bf58-09d6-49d1-b149-d1eb410a09d3 .max-value{font-size:.75em;fill:#555}#chart-d600bf58-09d6-49d1-b149-d1eb410a09d3 .map-element{fill:#111;stroke:#555 !important}#chart-d600bf58-09d6-49d1-b149-d1eb410a09d3 .map-element .reactive{fill-opacity:inherit;stroke-opacity:inherit}#chart-d600bf58-09d6-49d1-b149-d1eb410a09d3 .color-0,#chart-d600bf58-09d6-49d1-b149-d1eb410a09d3 .color-0 a:visited{stroke:#ff5995;fill:#ff5995}#chart-d600bf58-09d6-49d1-b149-d1eb410a09d3 .color-1,#chart-d600bf58-09d6-49d1-b149-d1eb410a09d3 .color-1 a:visited{stroke:#b6e354;fill:#b6e354}#chart-d600bf58-09d6-49d1-b149-d1eb410a09d3 .color-2,#chart-d600bf58-09d6-49d1-b149-d1eb410a09d3 .color-2 a:visited{stroke:#feed6c;fill:#feed6c}#chart-d600bf58-09d6-49d1-b149-d1eb410a09d3 .color-3,#chart-d600bf58-09d6-49d1-b149-d1eb410a09d3 .color-3 a:visited{stroke:#8cedff;fill:#8cedff}#chart-d600bf58-09d6-49d1-b149-d1eb410a09d3 .text-overlay .color-0 text{fill:black}#chart-d600bf58-09d6-49d1-b149-d1eb410a09d3 .text-overlay .color-1 text{fill:black}#chart-d600bf58-09d6-49d1-b149-d1eb410a09d3 .text-overlay .color-2 text{fill:black}#chart-d600bf58-09d6-49d1-b149-d1eb410a09d3 .text-overlay .color-3 text{fill:black}#chart-d600bf58-09d6-49d1-b149-d1eb410a09d3 .series{stroke-width:5}#chart-d600bf58-09d6-49d1-b149-d1eb410a09d3 .series.serie-0{stroke-width:5}#chart-d600bf58-09d6-49d1-b149-d1eb410a09d3 .series.serie-1{stroke-width:5}#chart-d600bf58-09d6-49d1-b149-d1eb410a09d3 .series.serie-2{stroke-width:5}#chart-d600bf58-09d6-49d1-b149-d1eb410a09d3 .series.serie-3{stroke-width:5}
#chart-d600bf58-09d6-49d1-b149-d1eb410a09d3 text.no_data{text-anchor:middle}#chart-d600bf58-09d6-49d1-b149-d1eb410a09d3 .guide.line{fill:none}#chart-d600bf58-09d6-49d1-b149-d1eb410a09d3 .centered{text-anchor:middle}#chart-d600bf58-09d6-49d1-b149-d1eb410a09d3 .title{text-anchor:middle}#chart-d600bf58-09d6-49d1-b149-d1eb410a09d3 .legends .legend text{fill-opacity:1}#chart-d600bf58-09d6-49d1-b149-d1eb410a09d3 .axis.x text{text-anchor:middle}#chart-d600bf58-09d6-49d1-b149-d1eb410a09d3 .axis.x:not(.web) text[transform]{text-anchor:start}#chart-d600bf58-09d6-49d1-b149-d1eb410a09d3 .axis.x:not(.web) text[transform].backwards{text-anchor:end}#chart-d600bf58-09d6-49d1-b149-d1eb410a09d3 .axis.y text{text-anchor:end}#chart-d600bf58-09d6-49d1-b149-d1eb410a09d3 .axis.y text[transform].backwards{text-anchor:start}#chart-d600bf58-09d6-49d1-b149-d1eb410a09d3 .axis.y2 text{text-anchor:start}#chart-d600bf58-09d6-49d1-b149-d1eb410a09d3 .axis.y2 text[transform].backwards{text-anchor:end}#chart-d600bf58-09d6-49d1-b149-d1eb410a09d3 .axis .guide.line{stroke-dasharray:4,4}#chart-d600bf58-09d6-49d1-b149-d1eb410a09d3 .axis .major.guide.line{stroke-dasharray:6,6}#chart-d600bf58-09d6-49d1-b149-d1eb410a09d3 .horizontal .axis.y .guide.line,#chart-d600bf58-09d6-49d1-b149-d1eb410a09d3 .horizontal .axis.y2 .guide.line,#chart-d600bf58-09d6-49d1-b149-d1eb410a09d3 .vertical .axis.x .guide.line{opacity:0}#chart-d600bf58-09d6-49d1-b149-d1eb410a09d3 .horizontal .axis.always_show .guide.line,#chart-d600bf58-09d6-49d1-b149-d1eb410a09d3 .vertical .axis.always_show .guide.line{opacity:1 !important}#chart-d600bf58-09d6-49d1-b149-d1eb410a09d3 .axis.y .guides:hover .guide.line,#chart-d600bf58-09d6-49d1-b149-d1eb410a09d3 .axis.y2 .guides:hover .guide.line,#chart-d600bf58-09d6-49d1-b149-d1eb410a09d3 .axis.x .guides:hover .guide.line{opacity:1}#chart-d600bf58-09d6-49d1-b149-d1eb410a09d3 .axis .guides:hover text{opacity:1}#chart-d600bf58-09d6-49d1-b149-d1eb410a09d3 .nofill{fill:none}#chart-d600bf58-09d6-49d1-b149-d1eb410a09d3 .subtle-fill{fill-opacity:.2}#chart-d600bf58-09d6-49d1-b149-d1eb410a09d3 .dot{stroke-width:1px;fill-opacity:1}#chart-d600bf58-09d6-49d1-b149-d1eb410a09d3 .dot.active{stroke-width:5px}#chart-d600bf58-09d6-49d1-b149-d1eb410a09d3 .dot.negative{fill:transparent}#chart-d600bf58-09d6-49d1-b149-d1eb410a09d3 text,#chart-d600bf58-09d6-49d1-b149-d1eb410a09d3 tspan{stroke:none !important}#chart-d600bf58-09d6-49d1-b149-d1eb410a09d3 .series text.active{opacity:1}#chart-d600bf58-09d6-49d1-b149-d1eb410a09d3 .tooltip rect{fill-opacity:.95;stroke-width:.5}#chart-d600bf58-09d6-49d1-b149-d1eb410a09d3 .tooltip text{fill-opacity:1}#chart-d600bf58-09d6-49d1-b149-d1eb410a09d3 .showable{visibility:hidden}#chart-d600bf58-09d6-49d1-b149-d1eb410a09d3 .showable.shown{visibility:visible}#chart-d600bf58-09d6-49d1-b149-d1eb410a09d3 .gauge-background{fill:rgba(229,229,229,1);stroke:none}#chart-d600bf58-09d6-49d1-b149-d1eb410a09d3 .bg-lines{stroke:black;stroke-width:2px}</style><script type="text/javascript">window.pygal = window.pygal || {};window.pygal.config = window.pygal.config || {};window.pygal.config['d600bf58-09d6-49d1-b149-d1eb410a09d3'] = {"dynamic_print_values": false, "truncate_label": null, "inner_radius": 0, "print_values": false, "xrange": null, "box_mode": "extremes", "title": null, "legend_at_bottom_columns": null, "height": 600, "legend_at_bottom": false, "show_legend": true, "show_dots": false, "explicit_size": false, "y_labels_major": null, "show_minor_x_labels": true, "width": 800, "force_uri_protocol": "https", "half_pie": false, "style": {"major_label_font_family": "Consolas, \"Liberation Mono\", Menlo, Courier, monospace", "title_font_family": "Consolas, \"Liberation Mono\", Menlo, Courier, monospace", "stroke_opacity": ".8", "legend_font_family": "Consolas, \"Liberation Mono\", Menlo, Courier, monospace", "colors": ["#ff5995", "#b6e354", "#feed6c", "#8cedff", "#9e6ffe", "#899ca1", "#f8f8f2", "#bf4646", "#516083", "#f92672", "#82b414", "#fd971f", "#56c2d6", "#808384", "#8c54fe", "#465457"], "legend_font_size": 14, "no_data_font_family": "Consolas, \"Liberation Mono\", Menlo, Courier, monospace", "major_label_font_size": 10, "value_background": "rgba(229, 229, 229, 1)", "ci_colors": [], "label_font_family": "Consolas, \"Liberation Mono\", Menlo, Courier, monospace", "label_font_size": 10, "tooltip_font_size": 14, "value_font_size": 16, "font_family": "Consolas, \"Liberation Mono\", Menlo, Courier, monospace", "opacity": ".8", "foreground": "#999", "plot_background": "#111", "value_label_font_size": 10, "value_label_font_family": "Consolas, \"Liberation Mono\", Menlo, Courier, monospace", "background": "black", "no_data_font_size": 64, "value_colors": [], "guide_stroke_dasharray": "4,4", "transition": "250ms", "foreground_subtle": "#555", "value_font_family": "Consolas, \"Liberation Mono\", Menlo, Courier, monospace", "tooltip_font_family": "Consolas, \"Liberation Mono\", Menlo, Courier, monospace", "title_font_size": 16, "stroke_opacity_hover": ".9", "major_guide_stroke_dasharray": "6,6", "opacity_hover": ".4", "foreground_strong": "#eee"}, "x_label_rotation": 0, "fill": false, "missing_value_fill_truncation": "x", "zero": 0, "margin_right": null, "interpolation_parameters": {}, "x_labels_major": null, "rounded_bars": null, "show_y_labels": true, "dots_size": 2.5, "show_y_guides": false, "show_minor_y_labels": true, "x_labels": null, "y_title": null, "order_min": null, "formatter": null, "disable_xml_declaration": false, "strict": false, "css": ["file://style.css", "file://graph.css"], "tooltip_fancy_mode": true, "defs": [], "show_only_major_dots": false, "y_label_rotation": 0, "show_x_labels": true, "min_scale": 4, "show_x_guides": false, "spacing": 10, "x_labels_major_count": null, "pretty_print": false, "tooltip_border_radius": 0, "interpolate": "cubic", "js": ["//kozea.github.io/pygal.js/2.0.x/pygal-tooltips.min.js"], "y_labels": null, "stroke_style": {"width": 5}, "print_labels": false, "interpolation_precision": 250, "x_title": null, "y_labels_major_every": null, "logarithmic": false, "legends": ["Cluster 0", "Cluster 1", "Cluster 2", "Cluster 3"], "max_scale": 16, "print_zeroes": true, "no_data_text": "No data", "truncate_legend": null, "x_labels_major_every": null, "secondary_range": null, "legend_box_size": 12, "no_prefix": false, "stroke": true, "stack_from_top": false, "include_x_axis": false, "range": null, "classes": ["pygal-chart"], "margin_top": null, "margin_left": null, "y_labels_major_count": null, "margin_bottom": null, "inverse_y_axis": false, "margin": 20, "allow_interruptions": false, "print_values_position": "center"}</script><script type="text/javascript" xlink:href="https://kozea.github.io/pygal.js/2.0.x/pygal-tooltips.min.js"/></defs><title>Pygal</title><g class="graph line-graph vertical"><rect class="background" height="600" width="800" x="0" y="0"/><g class="plot" transform="translate(151, 20)"><rect class="background" height="560" width="628.4" x="0" y="0"/><g class="axis y"><g class="guides"><text class="major" x="-5" y="516.973667106">-1</text><title>-1</title></g><g class="guides"><text class="" x="-5" y="470.975098357">-0.8</text><title>-0.8</title></g><g class="guides"><text class="" x="-5" y="424.976529609">-0.6</text><title>-0.6</title></g><g class="guides"><text class="" x="-5" y="378.97796086">-0.4</text><title>-0.4</title></g><g class="guides"><text class="" x="-5" y="332.979392112">-0.2</text><title>-0.2</title></g><g class="guides"><text class="major" x="-5" y="286.980823363">0</text><title>0</title></g><g class="guides"><text class="" x="-5" y="240.982254615">0.2</text><title>0.2</title></g><g class="guides"><text class="" x="-5" y="194.983685866">0.4</text><title>0.4</title></g><g class="guides"><text class="" x="-5" y="148.985117118">0.6</text><title>0.6</title></g><g class="guides"><text class="" x="-5" y="102.986548369">0.8</text><title>0.8</title></g><g class="guides"><text class="major" x="-5" y="56.9879796206">1</text><title>1</title></g></g><g class="series serie-0 color-0"><path class="line reactive nofill" d="M12.084615 126.375034 L12.890256 127.676156 13.695897 128.977253 14.501538 130.278302 15.307179 131.579277 16.112821 132.880153 16.918462 134.180907 17.724103 135.481514 18.529744 136.781949 19.335385 138.082188 20.141026 139.382207 20.946667 140.681980 21.752308 141.981483 22.557949 143.280692 23.363590 144.579582 24.169231 145.878128 24.974872 147.176307 25.780513 148.474093 26.586154 149.771462 27.391795 151.068390 28.197436 152.364852 29.003077 153.660823 29.808718 154.956279 30.614359 156.251196 31.420000 157.545548 32.225641 158.839312 33.031282 160.132462 33.836923 161.424975 34.642564 162.716825 35.448205 164.007989 36.253846 165.298441 37.059487 166.588158 37.865128 167.877114 38.670769 169.165285 39.476410 170.452647 40.282051 171.739175 41.087692 173.024845 41.893333 174.309631 42.698974 175.593510 43.504615 176.876457 44.310256 178.158447 45.115897 179.439456 45.921538 180.719460 46.727179 181.998433 47.532821 183.276352 48.338462 184.553191 49.144103 185.828927 49.949744 187.103535 50.755385 188.376989 51.561026 189.649266 52.366667 190.920342 53.172308 192.190191 53.977949 193.458789 54.783590 194.726112 55.589231 195.992134 56.394872 197.256832 57.200513 198.520182 58.006154 199.782157 58.811795 201.042735 59.617436 202.301889 60.423077 203.559597 61.228718 204.815833 62.034359 206.070573 62.840000 207.323792 63.645641 208.575466 64.451282 209.825570 65.256923 211.074080 66.062564 212.320971 66.868205 213.566219 67.673846 214.809798 68.479487 216.051686 69.285128 217.291856 70.090769 218.530285 70.896410 219.766948 71.702051 221.001820 72.507692 222.234877 73.313333 223.466095 74.118974 224.695448 74.924615 225.922913 75.730256 227.148465 76.535897 228.372079 77.341538 229.593731 78.147179 230.813396 78.952821 232.031050 79.758462 233.246668 80.564103 234.460225 81.369744 235.671698 82.175385 236.881061 82.981026 238.088291 83.786667 239.293362 84.592308 240.496250 85.397949 241.696930 86.203590 242.895379 87.009231 244.091571 87.814872 245.285481 88.620513 246.477087 89.426154 247.666362 90.231795 248.853282 91.037436 250.037823 91.843077 251.219961 92.648718 252.399670 93.454359 253.576926 94.260000 254.751705 95.065641 255.923983 95.871282 257.093734 96.676923 258.260934 97.482564 259.425558 98.288205 260.587583 99.093846 261.746983 99.899487 262.903734 100.705128 264.057812 101.510769 265.209191 102.316410 266.357848 103.122051 267.503758 103.927692 268.646896 104.733333 269.787238 105.538974 270.924760 106.344615 272.059436 107.150256 273.191242 107.955897 274.320154 108.761538 275.446147 109.567179 276.569197 110.372821 277.689279 111.178462 278.806369 111.984103 279.920442 112.789744 281.031473 113.595385 282.139438 114.401026 283.244313 115.206667 284.346073 116.012308 285.444693 116.817949 286.540149 117.623590 287.632416 118.429231 288.721471 119.234872 289.807287 120.040513 290.889842 120.846154 291.969109 121.651795 293.045066 122.457436 294.117686 123.263077 295.186947 124.068718 296.252822 124.874359 297.315288 125.680000 298.374321 126.485641 299.429894 127.291282 300.481985 128.096923 301.530569 128.902564 302.575620 129.708205 303.617115 130.513846 304.655029 131.319487 305.689337 132.125128 306.720015 132.930769 307.747038 133.736410 308.770382 134.542051 309.790023 135.347692 310.805935 136.153333 311.818095 136.958974 312.826477 137.764615 313.831057 138.570256 314.831812 139.375897 315.828715 140.181538 316.821743 140.987179 317.810870 141.792821 318.796074 142.598462 319.777328 143.404103 320.754609 144.209744 321.727892 145.015385 322.697153 145.821026 323.662366 146.626667 324.623507 147.432308 325.580553 148.237949 326.533478 149.043590 327.482257 149.849231 328.426867 150.654872 329.367283 151.460513 330.303480 152.266154 331.235433 153.071795 332.163119 153.877436 333.086512 154.683077 334.005588 155.488718 334.920323 156.294359 335.830692 157.100000 336.736671 157.905641 337.638234 158.711282 338.535358 159.516923 339.428018 160.322564 340.316189 161.128205 341.199848 161.933846 342.078968 162.739487 342.953527 163.545128 343.823498 164.350769 344.688859 165.156410 345.549583 165.962051 346.405648 166.767692 347.257027 167.573333 348.103697 168.378974 348.945634 169.184615 349.782812 169.990256 350.615207 170.795897 351.442794 171.601538 352.265550 172.407179 353.083449 173.212821 353.896467 174.018462 354.704579 174.824103 355.507761 175.629744 356.305989 176.435385 357.099238 177.241026 357.887483 178.046667 358.670699 178.852308 359.448863 179.657949 360.221950 180.463590 360.989935 181.269231 361.752793 182.074872 362.510501 182.880513 363.263033 183.686154 364.010366 184.491795 364.752474 185.297436 365.489333 186.103077 366.220919 186.908718 366.947206 187.714359 367.668171 188.520000 368.383789 189.325641 369.094035 190.131282 369.798886 190.936923 370.498315 191.742564 371.192300 192.548205 371.880814 193.353846 372.563835 194.159487 373.241336 194.965128 373.913295 195.770769 374.579685 196.576410 375.240484 197.382051 375.895665 198.187692 376.545205 198.993333 377.189079 199.798974 377.827263 200.604615 378.459731 201.410256 379.086460 202.215897 379.707425 203.021538 380.322602 203.827179 380.931965 204.632821 381.535491 205.438462 382.133154 206.244103 382.724931 207.049744 383.310797 207.855385 383.890727 208.661026 384.464697 209.466667 385.032681 210.272308 385.594657 211.077949 386.150599 211.883590 386.700482 212.689231 387.244282 213.494872 387.781975 214.300513 388.313543 215.106154 388.838990 215.911795 389.358329 216.717436 389.871572 217.523077 390.378730 218.328718 390.879817 219.134359 391.374843 219.940000 391.863821 220.745641 392.346763 221.551282 392.823680 222.356923 393.294584 223.162564 393.759488 223.968205 394.218404 224.773846 394.671343 225.579487 395.118317 226.385128 395.559338 227.190769 395.994418 227.996410 396.423570 228.802051 396.846805 229.607692 397.264134 230.413333 397.675571 231.218974 398.081127 232.024615 398.480813 232.830256 398.874642 233.635897 399.262626 234.441538 399.644777 235.247179 400.021107 236.052821 400.391627 236.858462 400.756349 237.664103 401.115286 238.469744 401.468450 239.275385 401.815851 240.081026 402.157503 240.886667 402.493418 241.692308 402.823607 242.497949 403.148081 243.303590 403.466854 244.109231 403.779937 244.914872 404.087342 245.720513 404.389081 246.526154 404.685166 247.331795 404.975609 248.137436 405.260421 248.943077 405.539615 249.748718 405.813203 250.554359 406.081197 251.360000 406.343608 252.165641 406.600449 252.971282 406.851731 253.776923 407.097466 254.582564 407.337667 255.388205 407.572345 256.193846 407.801513 256.999487 408.025181 257.805128 408.243363 258.610769 408.456070 259.416410 408.663314 260.222051 408.865107 261.027692 409.061461 261.833333 409.252388 262.638974 409.437899 263.444615 409.618008 264.250256 409.792725 265.055897 409.962062 265.861538 410.126033 266.667179 410.284648 267.472821 410.437919 268.278462 410.585859 269.084103 410.728479 269.889744 410.865792 270.695385 410.997809 271.501026 411.124542 272.306667 411.246003 273.112308 411.362205 273.917949 411.473159 274.723590 411.578876 275.529231 411.679370 276.334872 411.774651 277.140513 411.864733 277.946154 411.949626 278.751795 412.029343 279.557436 412.103895 280.363077 412.173296 281.168718 412.237555 281.974359 412.296687 282.780000 412.350702 283.585641 412.399612 284.391282 412.443430 285.196923 412.482167 286.002564 412.515835 286.808205 412.544447 287.613846 412.568014 288.419487 412.586547 289.225128 412.600060 290.030769 412.608564 290.836410 412.612071 291.642051 412.610593 292.447692 412.604141 293.253333 412.592729 294.058974 412.576367 294.864615 412.555068 295.670256 412.528843 296.475897 412.497705 297.281538 412.461666 298.087179 412.420737 298.892821 412.374931 299.698462 412.324258 300.504103 412.268733 301.309744 412.208365 302.115385 412.143168 302.921026 412.073152 303.726667 411.998331 304.532308 411.918716 305.337949 411.834319 306.143590 411.745152 306.949231 411.651227 307.754872 411.552555 308.560513 411.449150 309.366154 411.341022 310.171795 411.228184 310.977436 411.110647 311.783077 410.988424 312.588718 410.861526 313.394359 410.729966 314.200000 410.593755 315.005641 410.452906 315.811282 410.307430 316.616923 410.157339 317.422564 410.002646 318.228205 409.843361 319.033846 409.679498 319.839487 409.511067 320.645128 409.338082 321.450769 409.160554 322.256410 408.978494 323.062051 408.791915 323.867692 408.600829 324.673333 408.405248 325.478974 408.205183 326.284615 408.000647 327.090256 407.791652 327.895897 407.578208 328.701538 407.360330 329.507179 407.138028 330.312821 406.911314 331.118462 406.680200 331.924103 406.444699 332.729744 406.204822 333.535385 405.960581 334.341026 405.711988 335.146667 405.459055 335.952308 405.201794 336.757949 404.940216 337.563590 404.674335 338.369231 404.404162 339.174872 404.129708 339.980513 403.850986 340.786154 403.568007 341.591795 403.280785 342.397436 402.989329 343.203077 402.693654 344.008718 402.393769 344.814359 402.089688 345.620000 401.781422 346.425641 401.468984 347.231282 401.152385 348.036923 400.831637 348.842564 400.506752 349.648205 400.177742 350.453846 399.844619 351.259487 399.507395 352.065128 399.166082 352.870769 398.820691 353.676410 398.471236 354.482051 398.117727 355.287692 397.760177 356.093333 397.398597 356.898974 397.033001 357.704615 396.663398 358.510256 396.289802 359.315897 395.912225 360.121538 395.530678 360.927179 395.145173 361.732821 394.755722 362.538462 394.362338 363.344103 393.965031 364.149744 393.563815 364.955385 393.158701 365.761026 392.749701 366.566667 392.336826 367.372308 391.920090 368.177949 391.499503 368.983590 391.075079 369.789231 390.646827 370.594872 390.214762 371.400513 389.778894 372.206154 389.339236 373.011795 388.895799 373.817436 388.448596 374.623077 387.997638 375.428718 387.542937 376.234359 387.084506 377.040000 386.622355 377.845641 386.156498 378.651282 385.686947 379.456923 385.213712 380.262564 384.736806 381.068205 384.256241 381.873846 383.772029 382.679487 383.284182 383.485128 382.792712 384.290769 382.297631 385.096410 381.798950 385.902051 381.296682 386.707692 380.790838 387.513333 380.281431 388.318974 379.768473 389.124615 379.251974 389.930256 378.731949 390.735897 378.208407 391.541538 377.681362 392.347179 377.150825 393.152821 376.616808 393.958462 376.079324 394.764103 375.538383 395.569744 374.993998 396.375385 374.446182 397.181026 373.894945 397.986667 373.340300 398.792308 372.782259 399.597949 372.220833 400.403590 371.656035 401.209231 371.087877 402.014872 370.516370 402.820513 369.941527 403.626154 369.363360 404.431795 368.781880 405.237436 368.197099 406.043077 367.609029 406.848718 367.017683 407.654359 366.423072 408.460000 365.825208 409.265641 365.224103 410.071282 364.619769 410.876923 364.012218 411.682564 363.401462 412.488205 362.787513 413.293846 362.170383 414.099487 361.550083 414.905128 360.926627 415.710769 360.300025 416.516410 359.670290 417.322051 359.037435 418.127692 358.401472 418.933333 357.762415 419.738974 357.120275 420.544615 356.475065 421.350256 355.826798 422.155897 355.175486 422.961538 354.521142 423.767179 353.863779 424.572821 353.203408 425.378462 352.540044 426.184103 351.873697 426.989744 351.204381 427.795385 350.532109 428.601026 349.856893 429.406667 349.178745 430.212308 348.497678 431.017949 347.813705 431.823590 347.126838 432.629231 346.437091 433.434872 345.744474 434.240513 345.049002 435.046154 344.350686 435.851795 343.649539 436.657436 342.945575 437.463077 342.238804 438.268718 341.529241 439.074359 340.816897 439.880000 340.101785 440.685641 339.383918 441.491282 338.663308 442.296923 337.939968 443.102564 337.213910 443.908205 336.485147 444.713846 335.753692 445.519487 335.019557 446.325128 334.282755 447.130769 333.543298 447.936410 332.801199 448.742051 332.056471 449.547692 331.309126 450.353333 330.559176 451.158974 329.806635 451.964615 329.051514 452.770256 328.293827 453.575897 327.533585 454.381538 326.770803 455.187179 326.005491 455.992821 325.237664 456.798462 324.467332 457.604103 323.694509 458.409744 322.919208 459.215385 322.141441 460.021026 321.361221 460.826667 320.578560 461.632308 319.793470 462.437949 319.005965 463.243590 318.216057 464.049231 317.423759 464.854872 316.629082 465.660513 315.832040 466.466154 315.032646 467.271795 314.230911 468.077436 313.426849 468.883077 312.620472 469.688718 311.811793 470.494359 311.000823 471.300000 310.187577 472.105641 309.372066 472.911282 308.554303 473.716923 307.734300 474.522564 306.912070 475.328205 306.087626 476.133846 305.260981 476.939487 304.432146 477.745128 303.601135 478.550769 302.767959 479.356410 301.932632 480.162051 301.095167 480.967692 300.255575 481.773333 299.413869 482.578974 298.570063 483.384615 297.724168 484.190256 296.876196 484.995897 296.026162 485.801538 295.174077 486.607179 294.319954 487.412821 293.463805 488.218462 292.605643 489.024103 291.745480 489.829744 290.883330 490.635385 290.019204 491.441026 289.153116 492.246667 288.285078 493.052308 287.415102 493.857949 286.543201 494.663590 285.669388 495.469231 284.793675 496.274872 283.916075 497.080513 283.036600 497.886154 282.155263 498.691795 281.272077 499.497436 280.387054 500.303077 279.500206 501.108718 278.611547 501.914359 277.721089 502.720000 276.828844 503.525641 275.934825 504.331282 275.039045 505.136923 274.141516 505.942564 273.242250 506.748205 272.341262 507.553846 271.438562 508.359487 270.534163 509.165128 269.628079 509.970769 268.720321 510.776410 267.810903 511.582051 266.899836 512.387692 265.987134 513.193333 265.072809 513.998974 264.156873 514.804615 263.239340 515.610256 262.320221 516.415897 261.399530 517.221538 260.477278 518.027179 259.553479 518.832821 258.628145 519.638462 257.701289 520.444103 256.772923 521.249744 255.843060 522.055385 254.911712 522.861026 253.978893 523.666667 253.044613 524.472308 252.108887 525.277949 251.171727 526.083590 250.233145 526.889231 249.293154 527.694872 248.351766 528.500513 247.408994 529.306154 246.464851 530.111795 245.519350 530.917436 244.572502 531.723077 243.624320 532.528718 242.674817 533.334359 241.724006 534.140000 240.771899 534.945641 239.818509 535.751282 238.863848 536.556923 237.907929 537.362564 236.950764 538.168205 235.992366 538.973846 235.032748 539.779487 234.071922 540.585128 233.109901 541.390769 232.146698 542.196410 231.182324 543.002051 230.216792 543.807692 229.250116 544.613333 228.282308 545.418974 227.313379 546.224615 226.343344 547.030256 225.372214 547.835897 224.400002 548.641538 223.426721 549.447179 222.452382 550.252821 221.477000 551.058462 220.500586 551.864103 219.523152 552.669744 218.544712 553.475385 217.565279 554.281026 216.584864 555.086667 215.603480 555.892308 214.621140 556.697949 213.637856 557.503590 212.653642 558.309231 211.668509 559.114872 210.682470 559.920513 209.695537 560.726154 208.707725 561.531795 207.719043 562.337436 206.729507 563.143077 205.739127 563.948718 204.747918 564.754359 203.755890 565.560000 202.763057 566.365641 201.769432 567.171282 200.775026 567.976923 199.779853 568.782564 198.783925 569.588205 197.787255 570.393846 196.789855 571.199487 195.791738 572.005128 194.792916 572.810769 193.793403 573.616410 192.793210 574.422051 191.792350 575.227692 190.790836 576.033333 189.788680 576.838974 188.785896 577.644615 187.782495 578.450256 186.778489 579.255897 185.773893 580.061538 184.768718 580.867179 183.762976 581.672821 182.756682 582.478462 181.749846 583.284103 180.742481 584.089744 179.734601 584.895385 178.726218 585.701026 177.717344 586.506667 176.707991 587.312308 175.698174 588.117949 174.687903 588.923590 173.677192 589.729231 172.666053 590.534872 171.654499 591.340513 170.642543 592.146154 169.630196 592.951795 168.617472 593.757436 167.604383 594.563077 166.590942 595.368718 165.577161 596.174359 164.563053 596.980000 163.548631 597.785641 162.533907 598.591282 161.518893 599.396923 160.503602 600.202564 159.488047 601.008205 158.472241 601.813846 157.456195 602.619487 156.439923 603.425128 155.423438 604.230769 154.406751 605.036410 153.389875 605.842051 152.372823 606.647692 151.355607 607.453333 150.338241 608.258974 149.320736 609.064615 148.303105 609.870256 147.285361 610.675897 146.267516 611.481538 145.249584 612.287179 144.231576 613.092821 143.213504 613.898462 142.195383 614.704103 141.177224 615.509744 140.159040 616.315385 139.140843"/></g><g class="series serie-1 color-1"><path class="line reactive nofill" d="M12.084615 432.242489 L12.890256 431.072241 13.695897 429.902013 14.501538 428.731828 15.307179 427.561707 16.112821 426.391671 16.918462 425.221742 17.724103 424.051939 18.529744 422.882286 19.335385 421.712802 20.141026 420.543510 20.946667 419.374430 21.752308 418.205585 22.557949 417.036994 23.363590 415.868679 24.169231 414.700662 24.974872 413.532964 25.780513 412.365606 26.586154 411.198609 27.391795 410.031995 28.197436 408.865785 29.003077 407.700000 29.808718 406.534661 30.614359 405.369789 31.420000 404.205407 32.225641 403.041534 33.031282 401.878193 33.836923 400.715405 34.642564 399.553190 35.448205 398.391571 36.253846 397.230568 37.059487 396.070202 37.865128 394.910496 38.670769 393.751469 39.476410 392.593144 40.282051 391.435541 41.087692 390.278683 41.893333 389.122589 42.698974 387.967282 43.504615 386.812783 44.310256 385.659112 45.115897 384.506292 45.921538 383.354343 46.727179 382.203287 47.532821 381.053144 48.338462 379.903937 49.144103 378.755686 49.949744 377.608413 50.755385 376.462139 51.561026 375.316885 52.366667 374.172673 53.172308 373.029523 53.977949 371.887457 54.783590 370.746497 55.589231 369.606662 56.394872 368.467976 57.200513 367.330458 58.006154 366.194131 58.811795 365.059015 59.617436 363.925132 60.423077 362.792503 61.228718 361.661149 62.034359 360.531092 62.840000 359.402352 63.645641 358.274952 64.451282 357.148911 65.256923 356.024253 66.062564 354.900997 66.868205 353.779164 67.673846 352.658778 68.479487 351.539857 69.285128 350.422425 70.090769 349.306501 70.896410 348.192108 71.702051 347.079267 72.507692 345.967998 73.313333 344.858323 74.118974 343.750264 74.924615 342.643841 75.730256 341.539075 76.535897 340.435989 77.341538 339.334604 78.147179 338.234940 78.952821 337.137018 79.758462 336.040861 80.564103 334.946489 81.369744 333.853924 82.175385 332.763186 82.981026 331.674298 83.786667 330.587280 84.592308 329.502153 85.397949 328.418940 86.203590 327.337660 87.009231 326.258336 87.814872 325.180988 88.620513 324.105639 89.426154 323.032308 90.231795 321.961018 91.037436 320.891790 91.843077 319.824644 92.648718 318.759603 93.454359 317.696687 94.260000 316.635917 95.065641 315.577316 95.871282 314.520903 96.676923 313.466701 97.482564 312.414731 98.288205 311.365014 99.093846 310.317571 99.899487 309.272423 100.705128 308.229592 101.510769 307.189099 102.316410 306.150965 103.122051 305.115211 103.927692 304.081860 104.733333 303.050931 105.538974 302.022446 106.344615 300.996427 107.150256 299.972894 107.955897 298.951870 108.761538 297.933375 109.567179 296.917430 110.372821 295.904057 111.178462 294.893277 111.984103 293.885111 112.789744 292.879581 113.595385 291.876707 114.401026 290.876511 115.206667 289.879015 116.012308 288.884239 116.817949 287.892205 117.623590 286.902934 118.429231 285.916447 119.234872 284.932766 120.040513 283.951912 120.846154 282.973905 121.651795 281.998768 122.457436 281.026521 123.263077 280.057187 124.068718 279.090785 124.874359 278.127337 125.680000 277.166865 126.485641 276.209390 127.291282 275.254933 128.096923 274.303516 128.902564 273.355158 129.708205 272.409883 130.513846 271.467711 131.319487 270.528663 132.125128 269.592761 132.930769 268.660025 133.736410 267.730478 134.542051 266.804140 135.347692 265.881032 136.153333 264.961177 136.958974 264.044594 137.764615 263.131306 138.570256 262.221333 139.375897 261.314698 140.181538 260.411420 140.987179 259.511522 141.792821 258.615025 142.598462 257.721949 143.404103 256.832317 144.209744 255.946149 145.015385 255.063466 145.821026 254.184291 146.626667 253.308644 147.432308 252.436546 148.237949 251.568018 149.043590 250.703083 149.849231 249.841761 150.654872 248.984073 151.460513 248.130041 152.266154 247.279686 153.071795 246.433029 153.877436 245.590092 154.683077 244.750895 155.488718 243.915460 156.294359 243.083808 157.100000 242.255961 157.905641 241.431940 158.711282 240.611765 159.516923 239.795459 160.322564 238.983042 161.128205 238.174536 161.933846 237.369962 162.739487 236.569341 163.545128 235.772695 164.350769 234.980045 165.156410 234.191411 165.962051 233.406816 166.767692 232.626280 167.573333 231.849825 168.378974 231.077472 169.184615 230.309242 169.990256 229.545157 170.795897 228.785237 171.601538 228.029505 172.407179 227.277981 173.212821 226.530686 174.018462 225.787642 174.824103 225.048871 175.629744 224.314392 176.435385 223.584228 177.241026 222.858400 178.046667 222.136929 178.852308 221.419836 179.657949 220.707143 180.463590 219.998871 181.269231 219.295041 182.074872 218.595674 182.880513 217.900792 183.686154 217.210415 184.491795 216.524566 185.297436 215.843265 186.103077 215.166533 186.908718 214.494393 187.714359 213.826864 188.520000 213.163969 189.325641 212.505729 190.131282 211.852164 190.936923 211.203297 191.742564 210.559148 192.548205 209.919738 193.353846 209.285090 194.159487 208.655223 194.965128 208.030160 195.770769 207.409922 196.576410 206.794529 197.382051 206.184004 198.187692 205.578367 198.993333 204.977640 199.798974 204.381844 200.604615 203.790999 201.410256 203.205129 202.215897 202.624253 203.021538 202.048393 203.827179 201.477570 204.632821 200.911805 205.438462 200.351121 206.244103 199.795537 207.049744 199.245075 207.855385 198.699757 208.661026 198.159604 209.466667 197.624636 210.272308 197.094876 211.077949 196.570344 211.883590 196.051062 212.689231 195.537051 213.494872 195.028332 214.300513 194.524922 215.106154 194.026815 215.911795 193.534001 216.717436 193.046471 217.523077 192.564214 218.328718 192.087221 219.134359 191.615481 219.940000 191.148984 220.745641 190.687721 221.551282 190.231681 222.356923 189.780854 223.162564 189.335231 223.968205 188.894800 224.773846 188.459553 225.579487 188.029480 226.385128 187.604569 227.190769 187.184811 227.996410 186.770197 228.802051 186.360716 229.607692 185.956357 230.413333 185.557112 231.218974 185.162970 232.024615 184.773921 232.830256 184.389955 233.635897 184.011062 234.441538 183.637232 235.247179 183.268455 236.052821 182.904720 236.858462 182.546019 237.664103 182.192341 238.469744 181.843675 239.275385 181.500012 240.081026 181.161342 240.886667 180.827655 241.692308 180.498940 242.497949 180.175189 243.303590 179.856390 244.109231 179.542533 244.914872 179.233610 245.720513 178.929609 246.526154 178.630521 247.331795 178.336335 248.137436 178.047042 248.943077 177.762631 249.748718 177.483093 250.554359 177.208418 251.360000 176.938595 252.165641 176.673615 252.971282 176.413467 253.776923 176.158141 254.582564 175.907628 255.388205 175.661918 256.193846 175.420999 256.999487 175.184863 257.805128 174.953500 258.610769 174.726899 259.416410 174.505050 260.222051 174.287943 261.027692 174.075568 261.833333 173.867916 262.638974 173.664976 263.444615 173.466739 264.250256 173.273193 265.055897 173.084329 265.861538 172.900138 266.667179 172.720609 267.472821 172.545732 268.278462 172.375497 269.084103 172.209894 269.889744 172.048913 270.695385 171.892544 271.501026 171.740777 272.306667 171.593601 273.112308 171.451008 273.917949 171.312987 274.723590 171.179528 275.529231 171.050620 276.334872 170.926255 277.140513 170.806421 277.946154 170.691109 278.751795 170.580309 279.557436 170.474010 280.363077 170.372204 281.168718 170.274879 281.974359 170.182025 282.780000 170.093634 283.585641 170.009694 284.391282 169.930196 285.196923 169.855129 286.002564 169.784484 286.808205 169.718250 287.613846 169.656418 288.419487 169.598978 289.225128 169.545919 290.030769 169.497232 290.836410 169.452906 291.642051 169.412931 292.447692 169.377298 293.253333 169.345996 294.058974 169.319016 294.864615 169.296347 295.670256 169.277980 296.475897 169.263903 297.281538 169.254108 298.087179 169.248585 298.892821 169.247322 299.698462 169.250311 300.504103 169.257541 301.309744 169.269002 302.115385 169.284684 302.921026 169.304578 303.726667 169.328672 304.532308 169.356958 305.337949 169.389425 306.143590 169.426063 306.949231 169.466862 307.754872 169.511812 308.560513 169.560903 309.366154 169.614125 310.171795 169.671467 310.977436 169.732921 311.783077 169.798476 312.588718 169.868121 313.394359 169.941848 314.200000 170.019645 315.005641 170.101503 315.811282 170.187412 316.616923 170.277362 317.422564 170.371343 318.228205 170.469344 319.033846 170.571356 319.839487 170.677368 320.645128 170.787372 321.450769 170.901356 322.256410 171.019310 323.062051 171.141226 323.867692 171.267091 324.673333 171.396898 325.478974 171.530635 326.284615 171.668292 327.090256 171.809860 327.895897 171.955329 328.701538 172.104688 329.507179 172.257927 330.312821 172.415037 331.118462 172.576007 331.924103 172.740827 332.729744 172.909488 333.535385 173.081980 334.341026 173.258291 335.146667 173.438413 335.952308 173.622335 336.757949 173.810048 337.563590 174.001540 338.369231 174.196803 339.174872 174.395826 339.980513 174.598599 340.786154 174.805113 341.591795 175.015356 342.397436 175.229320 343.203077 175.446993 344.008718 175.668367 344.814359 175.893431 345.620000 176.122175 346.425641 176.354588 347.231282 176.590662 348.036923 176.830386 348.842564 177.073749 349.648205 177.320743 350.453846 177.571356 351.259487 177.825580 352.065128 178.083403 352.870769 178.344816 353.676410 178.609809 354.482051 178.878371 355.287692 179.150493 356.093333 179.426165 356.898974 179.705377 357.704615 179.988119 358.510256 180.274380 359.315897 180.564151 360.121538 180.857421 360.927179 181.154181 361.732821 181.454421 362.538462 181.758130 363.344103 182.065299 364.149744 182.375917 364.955385 182.689975 365.761026 183.007462 366.566667 183.328369 367.372308 183.652685 368.177949 183.980400 368.983590 184.311505 369.789231 184.645990 370.594872 184.983843 371.400513 185.325056 372.206154 185.669619 373.011795 186.017520 373.817436 186.368751 374.623077 186.723301 375.428718 187.081161 376.234359 187.442319 377.040000 187.806767 377.845641 188.174494 378.651282 188.545490 379.456923 188.919745 380.262564 189.297250 381.068205 189.677993 381.873846 190.061966 382.679487 190.449157 383.485128 190.839558 384.290769 191.233157 385.096410 191.629946 385.902051 192.029913 386.707692 192.433049 387.513333 192.839345 388.318974 193.248789 389.124615 193.661372 389.930256 194.077084 390.735897 194.495914 391.541538 194.917854 392.347179 195.342892 393.152821 195.771019 393.958462 196.202225 394.764103 196.636499 395.569744 197.073832 396.375385 197.514214 397.181026 197.957635 397.986667 198.404084 398.792308 198.853551 399.597949 199.306028 400.403590 199.761503 401.209231 200.219966 402.014872 200.681408 402.820513 201.145818 403.626154 201.613187 404.431795 202.083505 405.237436 202.556761 406.043077 203.032945 406.848718 203.512047 407.654359 203.994059 408.460000 204.478968 409.265641 204.966766 410.071282 205.457442 410.876923 205.950986 411.682564 206.447388 412.488205 206.946639 413.293846 207.448728 414.099487 207.953646 414.905128 208.461381 415.710769 208.971924 416.516410 209.485265 417.322051 210.001391 418.127692 210.520291 418.933333 211.041955 419.738974 211.566371 420.544615 212.093527 421.350256 212.623413 422.155897 213.156017 422.961538 213.691329 423.767179 214.229336 424.572821 214.770028 425.378462 215.313393 426.184103 215.859420 426.989744 216.408099 427.795385 216.959417 428.601026 217.513363 429.406667 218.069926 430.212308 218.629096 431.017949 219.190860 431.823590 219.755208 432.629231 220.322128 433.434872 220.891609 434.240513 221.463640 435.046154 222.038209 435.851795 222.615306 436.657436 223.194919 437.463077 223.777037 438.268718 224.361649 439.074359 224.948742 439.880000 225.538307 440.685641 226.130332 441.491282 226.724806 442.296923 227.321717 443.102564 227.921055 443.908205 228.522807 444.713846 229.126964 445.519487 229.733512 446.325128 230.342443 447.130769 230.953743 447.936410 231.567402 448.742051 232.183409 449.547692 232.801752 450.353333 233.422420 451.158974 234.045402 451.964615 234.670687 452.770256 235.298263 453.575897 235.928120 454.381538 236.560245 455.187179 237.194629 455.992821 237.831259 456.798462 238.470124 457.604103 239.111213 458.409744 239.754515 459.215385 240.400019 460.021026 241.047713 460.826667 241.697586 461.632308 242.349627 462.437949 243.003825 463.243590 243.660168 464.049231 244.318645 464.854872 244.979245 465.660513 245.641957 466.466154 246.306770 467.271795 246.973672 468.077436 247.642652 468.883077 248.313698 469.688718 248.986801 470.494359 249.661947 471.300000 250.339127 472.105641 251.018329 472.911282 251.699541 473.716923 252.382752 474.522564 253.067952 475.328205 253.755129 476.133846 254.444271 476.939487 255.135368 477.745128 255.828409 478.550769 256.523381 479.356410 257.220274 480.162051 257.919076 480.967692 258.619777 481.773333 259.322365 482.578974 260.026829 483.384615 260.733157 484.190256 261.441339 484.995897 262.151363 485.801538 262.863218 486.607179 263.576893 487.412821 264.292376 488.218462 265.009656 489.024103 265.728722 489.829744 266.449563 490.635385 267.172168 491.441026 267.896524 492.246667 268.622622 493.052308 269.350450 493.857949 270.079996 494.663590 270.811250 495.469231 271.544200 496.274872 272.278835 497.080513 273.015143 497.886154 273.753114 498.691795 274.492736 499.497436 275.233998 500.303077 275.976888 501.108718 276.721396 501.914359 277.467511 502.720000 278.215220 503.525641 278.964514 504.331282 279.715380 505.136923 280.467807 505.942564 281.221784 506.748205 281.977300 507.553846 282.734344 508.359487 283.492904 509.165128 284.252970 509.970769 285.014529 510.776410 285.777571 511.582051 286.542085 512.387692 287.308058 513.193333 288.075481 513.998974 288.844342 514.804615 289.614629 515.610256 290.386331 516.415897 291.159438 517.221538 291.933937 518.027179 292.709818 518.832821 293.487069 519.638462 294.265680 520.444103 295.045638 521.249744 295.826933 522.055385 296.609554 522.861026 297.393489 523.666667 298.178727 524.472308 298.965256 525.277949 299.753066 526.083590 300.542145 526.889231 301.332483 527.694872 302.124067 528.500513 302.916887 529.306154 303.710931 530.111795 304.506188 530.917436 305.302647 531.723077 306.100297 532.528718 306.899127 533.334359 307.699124 534.140000 308.500278 534.945641 309.302579 535.751282 310.106013 536.556923 310.910571 537.362564 311.716241 538.168205 312.523012 538.973846 313.330872 539.779487 314.139811 540.585128 314.949817 541.390769 315.760878 542.196410 316.572984 543.002051 317.386124 543.807692 318.200286 544.613333 319.015459 545.418974 319.831631 546.224615 320.648792 547.030256 321.466930 547.835897 322.286034 548.641538 323.106093 549.447179 323.927096 550.252821 324.749031 551.058462 325.571887 551.864103 326.395652 552.669744 327.220317 553.475385 328.045868 554.281026 328.872296 555.086667 329.699589 555.892308 330.527736 556.697949 331.356725 557.503590 332.186545 558.309231 333.017185 559.114872 333.848634 559.920513 334.680880 560.726154 335.513913 561.531795 336.347720 562.337436 337.182292 563.143077 338.017616 563.948718 338.853682 564.754359 339.690477 565.560000 340.527992 566.365641 341.366214 567.171282 342.205132 567.976923 343.044736 568.782564 343.885014 569.588205 344.725954 570.393846 345.567546 571.199487 346.409779 572.005128 347.252640 572.810769 348.096119 573.616410 348.940204 574.422051 349.784885 575.227692 350.630150 576.033333 351.475988 576.838974 352.322388 577.644615 353.169338 578.450256 354.016827 579.255897 354.864844 580.061538 355.713378 580.867179 356.562417 581.672821 357.411950 582.478462 358.261967 583.284103 359.112455 584.089744 359.963404 584.895385 360.814802 585.701026 361.666638 586.506667 362.518901 587.312308 363.371579 588.117949 364.224662 588.923590 365.078138 589.729231 365.931996 590.534872 366.786225 591.340513 367.640813 592.146154 368.495749 592.951795 369.351023 593.757436 370.206622 594.563077 371.062535 595.368718 371.918752 596.174359 372.775261 596.980000 373.632051 597.785641 374.489110 598.591282 375.346428 599.396923 376.203993 600.202564 377.061793 601.008205 377.919819 601.813846 378.778057 602.619487 379.636498 603.425128 380.495130 604.230769 381.353942 605.036410 382.212922 605.842051 383.072059 606.647692 383.931342 607.453333 384.790761 608.258974 385.650302 609.064615 386.509956 609.870256 387.369712 610.675897 388.229557 611.481538 389.089480 612.287179 389.949471 613.092821 390.809518 613.898462 391.669611 614.704103 392.529736 615.509744 393.389885 616.315385 394.250044"/></g><g class="series serie-2 color-2"><path class="line reactive nofill" d="M12.084615 407.856685 L12.890256 405.121476 13.695897 402.386382 14.501538 399.651519 15.307179 396.917002 16.112821 394.182946 16.918462 391.449468 17.724103 388.716681 18.529744 385.984702 19.335385 383.253645 20.141026 380.523627 20.946667 377.794763 21.752308 375.067167 22.557949 372.340956 23.363590 369.616245 24.169231 366.893148 24.974872 364.171782 25.780513 361.452262 26.586154 358.734703 27.391795 356.019220 28.197436 353.305929 29.003077 350.594946 29.808718 347.886384 30.614359 345.180361 31.420000 342.476991 32.225641 339.776390 33.031282 337.078673 33.836923 334.383955 34.642564 331.692351 35.448205 329.003978 36.253846 326.318951 37.059487 323.637384 37.865128 320.959393 38.670769 318.285094 39.476410 315.614601 40.282051 312.948031 41.087692 310.285498 41.893333 307.627119 42.698974 304.973008 43.504615 302.323280 44.310256 299.678051 45.115897 297.037437 45.921538 294.401553 46.727179 291.770513 47.532821 289.144434 48.338462 286.523431 49.144103 283.907620 49.949744 281.297114 50.755385 278.692031 51.561026 276.092485 52.366667 273.498591 53.172308 270.910466 53.977949 268.328223 54.783590 265.751980 55.589231 263.181851 56.394872 260.617951 57.200513 258.060396 58.006154 255.509301 58.811795 252.964781 59.617436 250.426952 60.423077 247.895930 61.228718 245.371829 62.034359 242.854765 62.840000 240.344854 63.645641 237.842210 64.451282 235.346949 65.256923 232.859186 66.062564 230.379038 66.868205 227.906618 67.673846 225.442043 68.479487 222.985427 69.285128 220.536887 70.090769 218.096538 70.896410 215.664494 71.702051 213.240871 72.507692 210.825786 73.313333 208.419352 74.118974 206.021685 74.924615 203.632901 75.730256 201.253116 76.535897 198.882443 77.341538 196.521000 78.147179 194.168900 78.952821 191.826260 79.758462 189.493195 80.564103 187.169821 81.369744 184.856251 82.175385 182.552603 82.981026 180.258991 83.786667 177.975531 84.592308 175.702337 85.397949 173.439527 86.203590 171.187213 87.009231 168.945513 87.814872 166.714542 88.620513 164.494414 89.426154 162.285245 90.231795 160.087151 91.037436 157.900247 91.843077 155.724648 92.648718 153.560470 93.454359 151.407827 94.260000 149.266836 95.065641 147.137612 95.871282 145.020270 96.676923 142.914925 97.482564 140.821693 98.288205 138.740689 99.093846 136.672029 99.899487 134.615827 100.705128 132.572200 101.510769 130.541262 102.316410 128.523129 103.122051 126.517916 103.927692 124.525740 104.733333 122.546714 105.538974 120.580954 106.344615 118.628576 107.150256 116.689696 107.955897 114.764428 108.761538 112.852887 109.567179 110.955190 110.372821 109.071451 111.178462 107.201787 111.984103 105.346311 112.789744 103.505140 113.595385 101.678389 114.401026 99.866173 115.206667 98.068609 116.012308 96.285810 116.817949 94.517892 117.623590 92.764972 118.429231 91.027163 119.234872 89.304582 120.040513 87.597344 120.846154 85.905564 121.651795 84.229357 122.457436 82.568840 123.263077 80.924126 124.068718 79.295333 124.874359 77.682574 125.680000 76.085966 126.485641 74.505624 127.291282 72.941662 128.096923 71.394197 128.902564 69.863344 129.708205 68.349218 130.513846 66.851935 131.319487 65.371609 132.125128 63.908357 132.930769 62.462293 133.736410 61.033534 134.542051 59.622193 135.347692 58.228388 136.153333 56.852232 136.958974 55.493842 137.764615 54.153332 138.570256 52.830819 139.375897 51.526417 140.181538 50.240242 140.987179 48.972409 141.792821 47.723034 142.598462 46.492232 143.404103 45.280118 144.209744 44.086807 145.015385 42.912416 145.821026 41.757059 146.626667 40.620851 147.432308 39.503909 148.237949 38.406347 149.043590 37.328281 149.849231 36.269827 150.654872 35.231098 151.460513 34.212212 152.266154 33.213283 153.071795 32.234426 153.877436 31.275758 154.683077 30.337392 155.488718 29.419446 156.294359 28.522033 157.100000 27.645270 157.905641 26.789272 158.711282 25.954153 159.516923 25.140031 160.322564 24.347019 161.128205 23.575233 161.933846 22.824789 162.739487 22.095801 163.545128 21.388386 164.350769 20.702659 165.156410 20.038735 165.962051 19.396729 166.767692 18.776756 167.573333 18.178933 168.378974 17.603374 169.184615 17.050195 169.990256 16.519512 170.795897 16.011438 171.601538 15.526091 172.407179 15.063585 173.212821 14.624035 174.018462 14.207558 174.824103 13.814267 175.629744 13.444280 176.435385 13.097710 177.241026 12.774674 178.046667 12.475286 178.852308 12.199663 179.657949 11.947919 180.463590 11.720170 181.269231 11.516531 182.074872 11.337118 182.880513 11.182046 183.686154 11.051430 184.491795 10.945385 185.297436 10.864028 186.103077 10.807472 186.908718 10.775835 187.714359 10.769231 188.520000 10.787775 189.325641 10.831583 190.131282 10.900770 190.936923 10.995451 191.742564 11.115743 192.548205 11.261759 193.353846 11.433617 194.159487 11.631430 194.965128 11.855314 195.770769 12.105386 196.576410 12.381759 197.382051 12.684549 198.187692 13.013873 198.993333 13.369844 199.798974 13.752579 200.604615 14.162193 201.410256 14.598801 202.215897 15.062518 203.021538 15.553461 203.827179 16.071744 204.632821 16.617482 205.438462 17.190791 206.244103 17.791787 207.049744 18.420584 207.855385 19.077299 208.661026 19.762045 209.466667 20.474940 210.272308 21.216098 211.077949 21.985634 211.883590 22.783664 212.689231 23.610304 213.494872 24.465668 214.300513 25.349813 215.106154 26.262567 215.911795 27.203695 216.717436 28.172965 217.523077 29.170145 218.328718 30.195003 219.134359 31.247304 219.940000 32.326818 220.745641 33.433311 221.551282 34.566551 222.356923 35.726306 223.162564 36.912342 223.968205 38.124427 224.773846 39.362329 225.579487 40.625815 226.385128 41.914653 227.190769 43.228609 227.996410 44.567452 228.802051 45.930949 229.607692 47.318867 230.413333 48.730974 231.218974 50.167036 232.024615 51.626823 232.830256 53.110100 233.635897 54.616636 234.441538 56.146197 235.247179 57.698552 236.052821 59.273468 236.858462 60.870712 237.664103 62.490051 238.469744 64.131254 239.275385 65.794087 240.081026 67.478318 240.886667 69.183714 241.692308 70.910043 242.497949 72.657073 243.303590 74.424570 244.109231 76.212302 244.914872 78.020037 245.720513 79.847541 246.526154 81.694584 247.331795 83.560931 248.137436 85.446350 248.943077 87.350609 249.748718 89.273475 250.554359 91.214716 251.360000 93.174099 252.165641 95.151392 252.971282 97.146361 253.776923 99.158775 254.582564 101.188400 255.388205 103.235005 256.193846 105.298356 256.999487 107.378222 257.805128 109.474369 258.610769 111.586565 259.416410 113.714578 260.222051 115.858174 261.027692 118.017122 261.833333 120.191188 262.638974 122.380141 263.444615 124.583747 264.250256 126.801774 265.055897 129.033990 265.861538 131.280161 266.667179 133.540056 267.472821 135.813442 268.278462 138.100086 269.084103 140.399756 269.889744 142.712219 270.695385 145.037242 271.501026 147.374594 272.306667 149.724040 273.112308 152.085350 273.917949 154.458290 274.723590 156.842627 275.529231 159.238130 276.334872 161.644566 277.140513 164.061701 277.946154 166.489304 278.751795 168.927142 279.557436 171.374982 280.363077 173.832592 281.168718 176.299739 281.974359 178.776191 282.780000 181.261715 283.585641 183.756079 284.391282 186.259049 285.196923 188.770394 286.002564 191.289881 286.808205 193.817277 287.613846 196.352349 288.419487 198.894866 289.225128 201.444595 290.030769 204.001302 290.836410 206.564756 291.642051 209.134724 292.447692 211.710974 293.253333 214.293272 294.058974 216.881386 294.864615 219.475084 295.670256 222.074133 296.475897 224.678301 297.281538 227.287354 298.087179 229.901061 298.892821 232.519189 299.698462 235.141505 300.504103 237.767777 301.309744 240.397772 302.115385 243.031257 302.921026 245.668001 303.726667 248.307770 304.532308 250.950332 305.337949 253.595454 306.143590 256.242904 306.949231 258.892449 307.754872 261.543857 308.560513 264.196895 309.366154 266.851331 310.171795 269.506931 310.977436 272.163464 311.783077 274.820697 312.588718 277.478397 313.394359 280.136332 314.200000 282.794269 315.005641 285.451975 315.811282 288.109219 316.616923 290.765767 317.422564 293.421386 318.228205 296.075846 319.033846 298.728912 319.839487 301.380352 320.645128 304.029934 321.450769 306.677424 322.256410 309.322592 323.062051 311.965203 323.867692 314.605026 324.673333 317.241828 325.478974 319.875375 326.284615 322.505437 327.090256 325.131780 327.895897 327.754171 328.701538 330.372378 329.507179 332.986169 330.312821 335.595311 331.118462 338.199571 331.924103 340.798717 332.729744 343.392515 333.535385 345.980735 334.341026 348.563143 335.146667 351.139506 335.952308 353.709592 336.757949 356.273169 337.563590 358.830003 338.369231 361.379863 339.174872 363.922515 339.980513 366.457727 340.786154 368.985267 341.591795 371.504902 342.397436 374.016400 343.203077 376.519527 344.008718 379.014052 344.814359 381.499741 345.620000 383.976363 346.425641 386.443684 347.231282 388.901473 348.036923 391.349496 348.842564 393.787520 349.648205 396.215315 350.453846 398.632646 351.259487 401.039281 352.065128 403.434988 352.870769 405.819534 353.676410 408.192687 354.482051 410.554213 355.287692 412.903881 356.093333 415.241458 356.898974 417.566712 357.704615 419.879409 358.510256 422.179317 359.315897 424.466204 360.121538 426.739837 360.927179 428.999983 361.732821 431.246411 362.538462 433.478887 363.344103 435.697178 364.149744 437.901053 364.955385 440.090279 365.761026 442.264622 366.566667 444.423851 367.372308 446.567734 368.177949 448.696036 368.983590 450.808527 369.789231 452.904973 370.594872 454.985141 371.400513 457.048800 372.206154 459.095716 373.011795 461.125658 373.817436 463.138392 374.623077 465.133686 375.428718 467.111307 376.234359 469.071023 377.040000 471.012601 377.845641 472.935809 378.651282 474.840414 379.456923 476.726184 380.262564 478.592886 381.068205 480.440287 381.873846 482.268155 382.679487 484.076257 383.485128 485.864361 384.290769 487.632234 385.096410 489.379644 385.902051 491.106358 386.707692 492.812143 387.513333 494.496768 388.318974 496.159998 389.124615 497.801603 389.930256 499.421348 390.735897 501.019003 391.541538 502.594333 392.347179 504.147107 393.152821 505.677092 393.958462 507.184056 394.764103 508.667765 395.569744 510.127987 396.375385 511.564491 397.181026 512.977042 397.986667 514.365409 398.792308 515.729360 399.597949 517.068660 400.403590 518.383079 401.209231 519.672383 402.014872 520.936339 402.820513 522.174716 403.626154 523.387281 404.431795 524.573801 405.237436 525.734043 406.043077 526.867775 406.848718 527.974765 407.654359 529.054779 408.460000 530.107586 409.265641 531.132953 410.071282 532.130647 410.876923 533.100435 411.682564 534.042085 412.488205 534.955365 413.293846 535.840042 414.099487 536.695883 414.905128 537.522656 415.710769 538.320186 416.516410 539.088533 417.322051 539.827814 418.127692 540.538145 418.933333 541.219644 419.738974 541.872429 420.544615 542.496616 421.350256 543.092323 422.155897 543.659666 422.961538 544.198764 423.767179 544.709733 424.572821 545.192690 425.378462 545.647753 426.184103 546.075039 426.989744 546.474665 427.795385 546.846748 428.601026 547.191406 429.406667 547.508755 430.212308 547.798913 431.017949 548.061998 431.823590 548.298125 432.629231 548.507414 433.434872 548.689979 434.240513 548.845940 435.046154 548.975413 435.851795 549.078515 436.657436 549.155364 437.463077 549.206076 438.268718 549.230769 439.074359 549.229561 439.880000 549.202567 440.685641 549.149906 441.491282 549.071695 442.296923 548.968051 443.102564 548.839091 443.908205 548.684933 444.713846 548.505692 445.519487 548.301488 446.325128 548.072437 447.130769 547.818655 447.936410 547.540261 448.742051 547.237372 449.547692 546.910104 450.353333 546.558576 451.158974 546.182903 451.964615 545.783204 452.770256 545.359596 453.575897 544.912195 454.381538 544.441119 455.187179 543.946485 455.992821 543.428411 456.798462 542.887013 457.604103 542.322409 458.409744 541.734717 459.215385 541.124052 460.021026 540.490533 460.826667 539.834276 461.632308 539.155399 462.437949 538.454019 463.243590 537.730253 464.049231 536.984219 464.854872 536.216033 465.660513 535.425814 466.466154 534.613677 467.271795 533.779740 468.077436 532.924121 468.883077 532.046936 469.688718 531.148304 470.494359 530.228340 471.300000 529.287163 472.105641 528.324889 472.911282 527.341635 473.716923 526.337520 474.522564 525.312659 475.328205 524.267171 476.133846 523.201173 476.939487 522.114780 477.745128 521.008112 478.550769 519.881285 479.356410 518.734416 480.162051 517.567623 480.967692 516.381022 481.773333 515.174731 482.578974 513.948868 483.384615 512.703548 484.190256 511.438890 484.995897 510.155011 485.801538 508.852028 486.607179 507.530057 487.412821 506.189217 488.218462 504.829625 489.024103 503.451397 489.829744 502.054651 490.635385 500.639505 491.441026 499.206074 492.246667 497.754477 493.052308 496.284831 493.857949 494.797253 494.663590 493.291860 495.469231 491.768769 496.274872 490.228098 497.080513 488.669963 497.886154 487.094483 498.691795 485.501774 499.497436 483.891952 500.303077 482.265137 501.108718 480.621444 501.914359 478.960991 502.720000 477.283896 503.525641 475.590275 504.331282 473.880245 505.136923 472.153924 505.942564 470.411429 506.748205 468.652877 507.553846 466.878386 508.359487 465.088072 509.165128 463.282053 509.970769 461.460446 510.776410 459.623368 511.582051 457.770937 512.387692 455.903269 513.193333 454.020482 513.998974 452.122693 514.804615 450.210019 515.610256 448.282577 516.415897 446.340486 517.221538 444.383861 518.027179 442.412820 518.832821 440.427480 519.638462 438.427958 520.444103 436.414373 521.249744 434.386840 522.055385 432.345477 522.861026 430.290401 523.666667 428.221730 524.472308 426.139581 525.277949 424.044070 526.083590 421.935316 526.889231 419.813434 527.694872 417.678543 528.500513 415.530760 529.306154 413.370202 530.111795 411.196985 530.917436 409.011228 531.723077 406.813048 532.528718 404.602561 533.334359 402.379885 534.140000 400.145137 534.945641 397.898434 535.751282 395.639894 536.556923 393.369634 537.362564 391.087770 538.168205 388.794421 538.973846 386.489702 539.779487 384.173733 540.585128 381.846629 541.390769 379.508508 542.196410 377.159487 543.002051 374.799683 543.807692 372.429214 544.613333 370.048197 545.418974 367.656748 546.224615 365.254986 547.030256 362.843027 547.835897 360.420988 548.641538 357.988988 549.447179 355.547142 550.252821 353.095568 551.058462 350.634384 551.864103 348.163706 552.669744 345.683652 553.475385 343.194339 554.281026 340.695884 555.086667 338.188405 555.892308 335.672018 556.697949 333.146840 557.503590 330.612990 558.309231 328.070584 559.114872 325.519739 559.920513 322.960573 560.726154 320.393203 561.531795 317.817746 562.337436 315.234319 563.143077 312.643039 563.948718 310.044024 564.754359 307.437390 565.560000 304.823256 566.365641 302.201738 567.171282 299.572953 567.976923 296.937019 568.782564 294.294053 569.588205 291.644172 570.393846 288.987492 571.199487 286.324133 572.005128 283.654210 572.810769 280.977841 573.616410 278.295142 574.422051 275.606233 575.227692 272.911228 576.033333 270.210246 576.838974 267.503404 577.644615 264.790819 578.450256 262.072609 579.255897 259.348889 580.061538 256.619779 580.867179 253.885394 581.672821 251.145853 582.478462 248.401271 583.284103 245.651767 584.089744 242.897458 584.895385 240.138461 585.701026 237.374892 586.506667 234.606870 587.312308 231.834512 588.117949 229.057934 588.923590 226.277254 589.729231 223.492589 590.534872 220.704057 591.340513 217.911774 592.146154 215.115857 592.951795 212.316425 593.757436 209.513594 594.563077 206.707481 595.368718 203.898203 596.174359 201.085878 596.980000 198.270623 597.785641 195.452556 598.591282 192.631792 599.396923 189.808451 600.202564 186.982647 601.008205 184.154500 601.813846 181.324126 602.619487 178.491642 603.425128 175.657166 604.230769 172.820815 605.036410 169.982705 605.842051 167.142955 606.647692 164.301681 607.453333 161.459001 608.258974 158.615031 609.064615 155.769890 609.870256 152.923693 610.675897 150.076559 611.481538 147.228605 612.287179 144.379947 613.092821 141.530703 613.898462 138.680991 614.704103 135.830926 615.509744 132.980628 616.315385 130.130212"/></g><g class="series serie-3 color-3"><path class="line reactive nofill" d="M12.084615 165.675567 L12.890256 168.192673 13.695897 170.709671 14.501538 173.226455 15.307179 175.742916 16.112821 178.258948 16.918462 180.774444 17.724103 183.289295 18.529744 185.803395 19.335385 188.316636 20.141026 190.828911 20.946667 193.340112 21.752308 195.850132 22.557949 198.358864 23.363590 200.866200 24.169231 203.372034 24.974872 205.876257 25.780513 208.378762 26.586154 210.879442 27.391795 213.378190 28.197436 215.874898 29.003077 218.369459 29.808718 220.861766 30.614359 223.351711 31.420000 225.839186 32.225641 228.324085 33.031282 230.806300 33.836923 233.285724 34.642564 235.762249 35.448205 238.235769 36.253846 240.706175 37.059487 243.173360 37.865128 245.637217 38.670769 248.097639 39.476410 250.554518 40.282051 253.007747 41.087692 255.457219 41.893333 257.902826 42.698974 260.344461 43.504615 262.782016 44.310256 265.215384 45.115897 267.644458 45.921538 270.069130 46.727179 272.489294 47.532821 274.904841 48.338462 277.315665 49.144103 279.721657 49.949744 282.122711 50.755385 284.518720 51.561026 286.909575 52.366667 289.295170 53.172308 291.675397 53.977949 294.050149 54.783590 296.419319 55.589231 298.782799 56.394872 301.140481 57.200513 303.492259 58.006154 305.838025 58.811795 308.177672 59.617436 310.511092 60.423077 312.838178 61.228718 315.158823 62.034359 317.472919 62.840000 319.780359 63.645641 322.081035 64.451282 324.374841 65.256923 326.661669 66.062564 328.941411 66.868205 331.213960 67.673846 333.479209 68.479487 335.737051 69.285128 337.987378 70.090769 340.230082 70.896410 342.465057 71.702051 344.692195 72.507692 346.911389 73.313333 349.122531 74.118974 351.325513 74.924615 353.520230 75.730256 355.706573 76.535897 357.884434 77.341538 360.053707 78.147179 362.214285 78.952821 364.366059 79.758462 366.508923 80.564103 368.642768 81.369744 370.767489 82.175385 372.882977 82.981026 374.989125 83.786667 377.085826 84.592308 379.172972 85.397949 381.250456 86.203590 383.318170 87.009231 385.376008 87.814872 387.423862 88.620513 389.461624 89.426154 391.489188 90.231795 393.506445 91.037436 395.513289 91.843077 397.509612 92.648718 399.495307 93.454359 401.470267 94.260000 403.434383 95.065641 405.387549 95.871282 407.329658 96.676923 409.260601 97.482564 411.180272 98.288205 413.088563 99.093846 414.985368 99.899487 416.870578 100.705128 418.744086 101.510769 420.605785 102.316410 422.455567 103.122051 424.293326 103.927692 426.118953 104.733333 427.932342 105.538974 429.733385 106.344615 431.521975 107.150256 433.298004 107.955897 435.061365 108.761538 436.811951 109.567179 438.549654 110.372821 440.274367 111.178462 441.985983 111.984103 443.684394 112.789744 445.369493 113.595385 447.041172 114.401026 448.699325 115.206667 450.343843 116.012308 451.974620 116.817949 453.591548 117.623590 455.194520 118.429231 456.783428 119.234872 458.358165 120.040513 459.918624 120.846154 461.464697 121.651795 462.996277 122.457436 464.513257 123.263077 466.015529 124.068718 467.502986 124.874359 468.975520 125.680000 470.433025 126.485641 471.875392 127.291282 473.302515 128.096923 474.714287 128.902564 476.110598 129.708205 477.491344 130.513846 478.856415 131.319487 480.205705 132.125128 481.539107 132.930769 482.856512 133.736410 484.157814 134.542051 485.442906 135.347692 486.711679 136.153333 487.964027 136.958974 489.199842 137.764615 490.419017 138.570256 491.621444 139.375897 492.807017 140.181538 493.975627 140.987179 495.127168 141.792821 496.261532 142.598462 497.378612 143.404103 498.478300 144.209744 499.560489 145.015385 500.625072 145.821026 501.671941 146.626667 502.700989 147.432308 503.712108 148.237949 504.705192 149.043590 505.680133 149.849231 506.636823 150.654872 507.575155 151.460513 508.495022 152.266154 509.396317 153.071795 510.278932 153.877436 511.142759 154.683077 511.987692 155.488718 512.813623 156.294359 513.620445 157.100000 514.408050 157.905641 515.176331 158.711282 515.925180 159.516923 516.654491 160.322564 517.364156 161.128205 518.054067 161.933846 518.724117 162.739487 519.374199 163.545128 520.004206 164.350769 520.614030 165.156410 521.203564 165.962051 521.772700 166.767692 522.321331 167.573333 522.849350 168.378974 523.356649 169.184615 523.843121 169.990256 524.308658 170.795897 524.753155 171.601538 525.176501 172.407179 525.578592 173.212821 525.959319 174.018462 526.318574 174.824103 526.656251 175.629744 526.972243 176.435385 527.266441 177.241026 527.538738 178.046667 527.789027 178.852308 528.017202 179.657949 528.223153 180.463590 528.406775 181.269231 528.567959 182.074872 528.706599 182.880513 528.822586 183.686154 528.915814 184.491795 528.986176 185.297436 529.033563 186.103077 529.057868 186.908718 529.058985 187.714359 529.036806 188.520000 528.991223 189.325641 528.922129 190.131282 528.829417 190.936923 528.712980 191.742564 528.572709 192.548205 528.408498 193.353846 528.220239 194.159487 528.007826 194.965128 527.771150 195.770769 527.510104 196.576410 527.224581 197.382051 526.914473 198.187692 526.579674 198.993333 526.220076 199.798974 525.835571 200.604615 525.426052 201.410256 524.991412 202.215897 524.531543 203.021538 524.046339 203.827179 523.535691 204.632821 522.999492 205.438462 522.437636 206.244103 521.850014 207.049744 521.236519 207.855385 520.597044 208.661026 519.931482 209.466667 519.239725 210.272308 518.521666 211.077949 517.777197 211.883590 517.006212 212.689231 516.208602 213.494872 515.384261 214.300513 514.533135 215.106154 513.655391 215.911795 512.751250 216.717436 511.820932 217.523077 510.864658 218.328718 509.882648 219.134359 508.875124 219.940000 507.842306 220.745641 506.784415 221.551282 505.701672 222.356923 504.594297 223.162564 503.462510 223.968205 502.306534 224.773846 501.126588 225.579487 499.922893 226.385128 498.695670 227.190769 497.445140 227.996410 496.171522 228.802051 494.875039 229.607692 493.555911 230.413333 492.214359 231.218974 490.850602 232.024615 489.464862 232.830256 488.057361 233.635897 486.628317 234.441538 485.177953 235.247179 483.706488 236.052821 482.214144 236.858462 480.701141 237.664103 479.167700 238.469744 477.614042 239.275385 476.040388 240.081026 474.446957 240.886667 472.833972 241.692308 471.201652 242.497949 469.550218 243.303590 467.879891 244.109231 466.190892 244.914872 464.483442 245.720513 462.757761 246.526154 461.014069 247.331795 459.252589 248.137436 457.473540 248.943077 455.677142 249.748718 453.863618 250.554359 452.033187 251.360000 450.186071 252.165641 448.322489 252.971282 446.442663 253.776923 444.546814 254.582564 442.635161 255.388205 440.707927 256.193846 438.765331 256.999487 436.807595 257.805128 434.834938 258.610769 432.847582 259.416410 430.845748 260.222051 428.829656 261.027692 426.799527 261.833333 424.755581 262.638974 422.698040 263.444615 420.627124 264.250256 418.543053 265.055897 416.446049 265.861538 414.336333 266.667179 412.214124 267.472821 410.079644 268.278462 407.933114 269.084103 405.774753 269.889744 403.604784 270.695385 401.423426 271.501026 399.230900 272.306667 397.027427 273.112308 394.813229 273.917949 392.588524 274.723590 390.353535 275.529231 388.108481 276.334872 385.853585 277.140513 383.589065 277.946154 381.315144 278.751795 379.032041 279.557436 376.739978 280.363077 374.439175 281.168718 372.129853 281.974359 369.812233 282.780000 367.486535 283.585641 365.152981 284.391282 362.811790 285.196923 360.463183 286.002564 358.107382 286.808205 355.744607 287.613846 353.375079 288.419487 350.999018 289.225128 348.616645 290.030769 346.228181 290.836410 343.833847 291.642051 341.433863 292.447692 339.028450 293.253333 336.617829 294.058974 334.202221 294.864615 331.781845 295.670256 329.356924 296.475897 326.927677 297.281538 324.494326 298.087179 322.057091 298.892821 319.616192 299.698462 317.171851 300.504103 314.724289 301.309744 312.273725 302.115385 309.820381 302.921026 307.364477 303.726667 304.906235 304.532308 302.445875 305.337949 299.983617 306.143590 297.519682 306.949231 295.054291 307.754872 292.587666 308.560513 290.120025 309.366154 287.651591 310.171795 285.182584 310.977436 282.713225 311.783077 280.243733 312.588718 277.774331 313.394359 275.305239 314.200000 272.836677 315.005641 270.368867 315.811282 267.902028 316.616923 265.436382 317.422564 262.972150 318.228205 260.509552 319.033846 258.048808 319.839487 255.590140 320.645128 253.133769 321.450769 250.679914 322.256410 248.228798 323.062051 245.780639 323.867692 243.335660 324.673333 240.894081 325.478974 238.456123 326.284615 236.022005 327.090256 233.591950 327.895897 231.166178 328.701538 228.744909 329.507179 226.328364 330.312821 223.916765 331.118462 221.510331 331.924103 219.109283 332.729744 216.713843 333.535385 214.324230 334.341026 211.940666 335.146667 209.563372 335.952308 207.192567 336.757949 204.828473 337.563590 202.471310 338.369231 200.121300 339.174872 197.778663 339.980513 195.443619 340.786154 193.116389 341.591795 190.797195 342.397436 188.486256 343.203077 186.183794 344.008718 183.890029 344.814359 181.605182 345.620000 179.329474 346.425641 177.063125 347.231282 174.806356 348.036923 172.559388 348.842564 170.322442 349.648205 168.095738 350.453846 165.879497 351.259487 163.673939 352.065128 161.479286 352.870769 159.295758 353.676410 157.123577 354.482051 154.962961 355.287692 152.814133 356.093333 150.677313 356.898974 148.552722 357.704615 146.440580 358.510256 144.341109 359.315897 142.254528 360.121538 140.181059 360.927179 138.120923 361.732821 136.074339 362.538462 134.041530 363.344103 132.022715 364.149744 130.018115 364.955385 128.027951 365.761026 126.052444 366.566667 124.091814 367.372308 122.146283 368.177949 120.216070 368.983590 118.301397 369.789231 116.402484 370.594872 114.519553 371.400513 112.652823 372.206154 110.802515 373.011795 108.968851 373.817436 107.152051 374.623077 105.352335 375.428718 103.569924 376.234359 101.805040 377.040000 100.057903 377.845641 98.328733 378.651282 96.617751 379.456923 94.925178 380.262564 93.251235 381.068205 91.596143 381.873846 89.960121 382.679487 88.343392 383.485128 86.746174 384.290769 85.168691 385.096410 83.611161 385.902051 82.073806 386.707692 80.556846 387.513333 79.060503 388.318974 77.584997 389.124615 76.130548 389.930256 74.697377 390.735897 73.285706 391.541538 71.895754 392.347179 70.527743 393.152821 69.181893 393.958462 67.858426 394.764103 66.557560 395.569744 65.279519 396.375385 64.024521 397.181026 62.792788 397.986667 61.584541 398.792308 60.400000 399.597949 59.239386 400.403590 58.102919 401.209231 56.990822 402.014872 55.903313 402.820513 54.840614 403.626154 53.802946 404.431795 52.790529 405.237436 51.803585 406.043077 50.842333 406.848718 49.906994 407.654359 48.997790 408.460000 48.114941 409.265641 47.258667 410.071282 46.429190 410.876923 45.626730 411.682564 44.851507 412.488205 44.103744 413.293846 43.383659 414.099487 42.691475 414.905128 42.027411 415.710769 41.391633 416.516410 40.784083 417.322051 40.204648 418.127692 39.653214 418.933333 39.129668 419.738974 38.633897 420.544615 38.165786 421.350256 37.725224 422.155897 37.312097 422.961538 36.926290 423.767179 36.567691 424.572821 36.236187 425.378462 35.931664 426.184103 35.654008 426.989744 35.403107 427.795385 35.178846 428.601026 34.981114 429.406667 34.809795 430.212308 34.664777 431.017949 34.545947 431.823590 34.453191 432.629231 34.386396 433.434872 34.345448 434.240513 34.330234 435.046154 34.340641 435.851795 34.376555 436.657436 34.437863 437.463077 34.524451 438.268718 34.636207 439.074359 34.773016 439.880000 34.934766 440.685641 35.121344 441.491282 35.332634 442.296923 35.568526 443.102564 35.828904 443.908205 36.113656 444.713846 36.422668 445.519487 36.755827 446.325128 37.113019 447.130769 37.494132 447.936410 37.899052 448.742051 38.327665 449.547692 38.779858 450.353333 39.255517 451.158974 39.754531 451.964615 40.276784 452.770256 40.822163 453.575897 41.390556 454.381538 41.981849 455.187179 42.595929 455.992821 43.232681 456.798462 43.891993 457.604103 44.573752 458.409744 45.277844 459.215385 46.004155 460.021026 46.752573 460.826667 47.522984 461.632308 48.315274 462.437949 49.129330 463.243590 49.965040 464.049231 50.822289 464.854872 51.700964 465.660513 52.600952 466.466154 53.522139 467.271795 54.464412 468.077436 55.427658 468.883077 56.411763 469.688718 57.416614 470.494359 58.442098 471.300000 59.488100 472.105641 60.554509 472.911282 61.641210 473.716923 62.748091 474.522564 63.875037 475.328205 65.021935 476.133846 66.188672 476.939487 67.375135 477.745128 68.581211 478.550769 69.806785 479.356410 71.051744 480.162051 72.315976 480.967692 73.599367 481.773333 74.901803 482.578974 76.223171 483.384615 77.563358 484.190256 78.922251 484.995897 80.299735 485.801538 81.695698 486.607179 83.110026 487.412821 84.542606 488.218462 85.993325 489.024103 87.462068 489.829744 88.948724 490.635385 90.453178 491.441026 91.975317 492.246667 93.515028 493.052308 95.072197 493.857949 96.646710 494.663590 98.238456 495.469231 99.847320 496.274872 101.473188 497.080513 103.115949 497.886154 104.775487 498.691795 106.451690 499.497436 108.144444 500.303077 109.853637 501.108718 111.579154 501.914359 113.320882 502.720000 115.078709 503.525641 116.852520 504.331282 118.642202 505.136923 120.447642 505.942564 122.268726 506.748205 124.105342 507.553846 125.957375 508.359487 127.824713 509.165128 129.707242 509.970769 131.604848 510.776410 133.517419 511.582051 135.444840 512.387692 137.386999 513.193333 139.343782 513.998974 141.315076 514.804615 143.300768 515.610256 145.300744 516.415897 147.314890 517.221538 149.343094 518.027179 151.385241 518.832821 153.441220 519.638462 155.510915 520.444103 157.594215 521.249744 159.691005 522.055385 161.801172 522.861026 163.924603 523.666667 166.061184 524.472308 168.210802 525.277949 170.373344 526.083590 172.548697 526.889231 174.736746 527.694872 176.937379 528.500513 179.150482 529.306154 181.375942 530.111795 183.613646 530.917436 185.863480 531.723077 188.125330 532.528718 190.399084 533.334359 192.684628 534.140000 194.981849 534.945641 197.290633 535.751282 199.610866 536.556923 201.942437 537.362564 204.285230 538.168205 206.639134 538.973846 209.004034 539.779487 211.379817 540.585128 213.766370 541.390769 216.163579 542.196410 218.571331 543.002051 220.989513 543.807692 223.418011 544.613333 225.856712 545.418974 228.305503 546.224615 230.764270 547.030256 233.232899 547.835897 235.711278 548.641538 238.199293 549.447179 240.696831 550.252821 243.203779 551.058462 245.720022 551.864103 248.245448 552.669744 250.779943 553.475385 253.323394 554.281026 255.875687 555.086667 258.436710 555.892308 261.006348 556.697949 263.584489 557.503590 266.171019 558.309231 268.765825 559.114872 271.368793 559.920513 273.979810 560.726154 276.598763 561.531795 279.225537 562.337436 281.860021 563.143077 284.502100 563.948718 287.151662 564.754359 289.808592 565.560000 292.472777 566.365641 295.144105 567.171282 297.822461 567.976923 300.507733 568.782564 303.199806 569.588205 305.898568 570.393846 308.603906 571.199487 311.315705 572.005128 314.033852 572.810769 316.758235 573.616410 319.488740 574.422051 322.225252 575.227692 324.967660 576.033333 327.715850 576.838974 330.469708 577.644615 333.229120 578.450256 335.993975 579.255897 338.764157 580.061538 341.539555 580.867179 344.320053 581.672821 347.105540 582.478462 349.895902 583.284103 352.691025 584.089744 355.490796 584.895385 358.295101 585.701026 361.103828 586.506667 363.916863 587.312308 366.734092 588.117949 369.555403 588.923590 372.380681 589.729231 375.209814 590.534872 378.042687 591.340513 380.879189 592.146154 383.719205 592.951795 386.562621 593.757436 389.409326 594.563077 392.259204 595.368718 395.112144 596.174359 397.968031 596.980000 400.826752 597.785641 403.688194 598.591282 406.552243 599.396923 409.418787 600.202564 412.287711 601.008205 415.158902 601.813846 418.032247 602.619487 420.907633 603.425128 423.784946 604.230769 426.664073 605.036410 429.544901 605.842051 432.427315 606.647692 435.311204 607.453333 438.196453 608.258974 441.082948 609.064615 443.970578 609.870256 446.859227 610.675897 449.748784 611.481538 452.639134 612.287179 455.530165 613.092821 458.421762 613.898462 461.313812 614.704103 464.206203 615.509744 467.098821 616.315385 469.991552"/></g></g><g class="titles"/><g class="plot overlay" transform="translate(151, 20)"><g class="series serie-0 color-0"/><g class="series serie-1 color-1"/><g class="series serie-2 color-2"/><g class="series serie-3 color-3"/></g><g class="plot text-overlay" transform="translate(151, 20)"><g class="series serie-0 color-0"/><g class="series serie-1 color-1"/><g class="series serie-2 color-2"/><g class="series serie-3 color-3"/></g><g class="plot tooltip-overlay" transform="translate(151, 20)"><g class="tooltip" style="opacity: 0" transform="translate(0 0)"><rect class="tooltip-box" height="0" rx="0" ry="0" width="0"/><g class="text"/></g></g><g class="legends" transform="translate(10, 30)"><g class="legend reactive activate-serie" id="activate-serie-0"><rect class="color-0 reactive" height="12" width="12" x="0.0" y="1.0"/><text x="17.0" y="11.2">Cluster 0</text></g><g class="legend reactive activate-serie" id="activate-serie-1"><rect class="color-1 reactive" height="12" width="12" x="0.0" y="22.0"/><text x="17.0" y="32.2">Cluster 1</text></g><g class="legend reactive activate-serie" id="activate-serie-2"><rect class="color-2 reactive" height="12" width="12" x="0.0" y="43.0"/><text x="17.0" y="53.2">Cluster 2</text></g><g class="legend reactive activate-serie" id="activate-serie-3"><rect class="color-3 reactive" height="12" width="12" x="0.0" y="64.0"/><text x="17.0" y="74.2">Cluster 3</text></g></g><g class="legends" transform="translate(790, 30)"/></g></svg>